<svg xmlns="http://www.w3.org/2000/svg" viewBox="0 0 48 48"><defs><style>.cls-1{fill:#df8761;}.cls-2{fill:#f29b75;}.cls-3{fill:#dad7e5;}.cls-4{fill:#edebf2;}.cls-5{fill:#c4455e;}.cls-6{fill:#db5669;}.cls-7{fill:#f26674;}.cls-8{fill:#6fabe6;}.cls-9{fill:#374f68;}.cls-10{fill:#82bcf4;}</style></defs><title>Wedding Planner</title><g id="Wedding_Planner" data-name="Wedding Planner"><path class="cls-1" d="M37,5c0,41.35.22,38.67-.52,40A4,4,0,0,1,33,47H5a4,4,0,0,1-4-4V5A4,4,0,0,1,5,1H33A4,4,0,0,1,37,5Z"/><path class="cls-2" d="M37,5c0,42.6.38,39.19-1,40A32.05,32.05,0,0,1,4,13C4,.84,3.77,1.72,5,1H33A4,4,0,0,1,37,5Z"/><rect class="cls-3" x="5" y="5" width="28" height="38"/><path class="cls-4" d="M33,5c0,37.25-.1,36,0,36A25,25,0,0,1,8,16V5Z"/><path class="cls-5" d="M18.89,14.36,15,18.24c-4.2-4.2-5-4.6-5-6.24a3,3,0,0,1,5-2.23A3.11,3.11,0,0,1,17,9a3,3,0,0,1,2.13.88A3,3,0,0,0,18.89,14.36Z"/><path class="cls-6" d="M17.77,14.22a7,7,0,0,0,.62.64l-2,2-3.51-3.51A3,3,0,0,1,13,9a2.94,2.94,0,0,1,2,.77A3.11,3.11,0,0,1,17,9a3.08,3.08,0,0,1,1.71.52A3,3,0,0,0,17.77,14.22Z"/><path class="cls-6" d="M28,12.23c0,1.66-.83,2.07-5,6.24-4.2-4.2-5-4.6-5-6.24A3,3,0,0,1,23,10a3.12,3.12,0,0,1,2-.77A3,3,0,0,1,28,12.23Z"/><path class="cls-7" d="M28,12.23c0,1.69-1.12,2.36-4,5.24-4.2-4.2-5-4.6-5-6.24a2.91,2.91,0,0,1,.45-1.57A2.91,2.91,0,0,1,21,9.23,3.12,3.12,0,0,1,23,10,3,3,0,0,1,28,12.23Z"/><path class="cls-8" d="M8.29,25.71a1,1,0,0,1,1.42-1.42L11,25.59l3.29-3.3a1,1,0,0,1,1.42,1.42C10.26,29.15,11.54,29,8.29,25.71Z"/><path class="cls-8" d="M8.29,36.71a1,1,0,0,1,1.42-1.42L11,36.59l3.29-3.3a1,1,0,0,1,1.42,1.42C10.26,40.15,11.54,40,8.29,36.71Z"/><path class="cls-9" d="M29,26H19a1,1,0,0,1,0-2H29A1,1,0,0,1,29,26Z"/><path class="cls-9" d="M29,37H19a1,1,0,0,1,0-2H29A1,1,0,0,1,29,37Z"/><path class="cls-8" d="M47,6V39l-3,6-3-6V6a3,3,0,0,1,6,0Z"/><path class="cls-10" d="M47,6V39l-1.75,3.5A20,20,0,0,1,43,33.28c0-28-.34-29.72.79-30.27A3,3,0,0,1,47,6Z"/></g></svg>